<?xml version="1.0" encoding="UTF-8"?>
<svg id="Layer_2" data-name="Layer 2" xmlns="http://www.w3.org/2000/svg" viewBox="0 0 256 256">
  <defs>
    <style>
      .cls-1 {
        fill: #231f20;
      }
    </style>
  </defs>
  <g id="Layer_1-2" data-name="Layer 1">
    <path class="cls-1" d="M128,0C57.31,0,0,57.31,0,128s57.31,128,128,128c1.14,0,2.26-.06,3.39-.09-2-6.93-3.15-14.21-3.33-21.74-.11,0-.21,0-.32,0-58.76,0-106.4-47.64-106.4-106.4S68.97,21.38,127.73,21.38s106.4,47.64,106.4,106.4c0,6.81-.67,13.45-1.89,19.9,7.35,1.56,14.34,4.07,20.86,7.38,1.88-8.73,2.89-17.77,2.89-27.06C256,57.31,198.69,0,128,0Z"/>
    <path class="cls-1" d="M184.03,130.06v-19.44h-14.81l-26.47-49.8-9.91-9.91-9.91,9.91-26.47,49.8h-14.81v19.44h4.48l-26.32,49.51,19.16,10.19,31.74-59.7h44.27l50.21,94.46,19.16-10.19-44.8-84.27h4.48ZM121.04,110.62l11.8-22.2,11.8,22.2h-23.61Z"/>
  </g>
</svg>