<?xml version="1.0" encoding="UTF-8"?>
<svg id="Layer_2" xmlns="http://www.w3.org/2000/svg" viewBox="0 0 256 256">
  <g id="Layer_2-2">
    <path fill="#547dbf" d="M256,138.55c0-8.59-.85-16.84-2.42-24.77h-125.58v46.84h71.76c-3.09,15.14-12.49,27.96-26.61,36.55v30.38h43.09c25.21-21.08,39.76-52.13,39.76-89.01Z"/>
    <path fill="#33a852" d="M128.62,256c34.56,0,63.54-11.01,84.72-29.78l-41.37-30.84c-11.46,7.38-26.13,11.73-43.35,11.73-33.34,0-61.56-21.62-71.63-50.67H14.22v31.84c21.06,40.17,64.35,67.71,114.39,67.71Z"/>
    <path fill="#f9bc15" d="M56.89,152.07c-2.58-7.6-4.05-15.72-4.05-24.07s1.47-16.47,4.05-24.07v-32.82H13.74C4.99,88.21,0,107.56,0,128s4.99,39.79,13.74,56.89l43.15-32.82Z"/>
    <path fill="#ea4435" d="M128.08,48.88c18.71,0,35.5,6.2,48.71,18.38l36.54-35.25C191.27,12.18,162.43,0,128.08,0,78.28,0,35.19,27.54,14.22,67.71l42.57,31.84c10.02-29.05,38.11-50.67,71.29-50.67Z"/>
  </g>
</svg>